# xmcd
#
# Track frame offsets: 
#        150
#        14660
#        30020
#        44852
#        60012
#        74868
#        89304
#        105748
#        122382
#        137483
#        151097
#        165868
#
# Disc length: 2445 seconds
#
# Revision: 1
# Processed by: cddbd v1.5PL3 Copyright (c) Steve Scherf et al.
# Submitted via: ExactAudioCopy v0.90b4
#
DISCID=8d098b0c
DTITLE=Buddy Jewell - Tales Of The New West
DYEAR=2003
DGENRE=Country
TTITLE0=Oh, Justine
TTITLE1=Parrothead Paradise
TTITLE2=Rosa Danced In Veracruz
TTITLE3=So Hard To Be Strong
TTITLE4=Mama Della
TTITLE5=One Time We Cared
TTITLE6=Come Back, Angel
TTITLE7=Pancho Villa's Gold
TTITLE8=Silver Wings In The Stars
TTITLE9=I Get The Bird
TTITLE10=Cold And Lonesome Life
TTITLE11=The Downtown Matinee
EXTD=
EXTT0=
EXTT1=
EXTT2=
EXTT3=
EXTT4=
EXTT5=
EXTT6=
EXTT7=
EXTT8=
EXTT9=
EXTT10=
EXTT11=
PLAYORDER=
